<svg width="332" height="590" viewBox="0 0 332 590" fill="none" xmlns="http://www.w3.org/2000/svg">
<path d="M183.039 480.238C184.694 480.165 186.073 481.529 185.814 483.165C184.284 492.816 175.457 500.217 164.797 500.217C154.137 500.217 145.311 492.816 143.781 483.165C143.521 481.529 144.896 480.163 146.551 480.246C155.844 480.714 154.089 483.383 164.797 483.383C175.571 483.383 173.012 480.681 183.039 480.238Z" fill="#19354F"/>
<rect x="126.705" y="444.905" width="76.1836" height="12.0245" rx="6.01224" fill="#19354F"/>
<rect x="126.705" y="424.864" width="76.1836" height="12.0244" rx="6.01222" fill="#19354F"/>
<mask id="path-4-inside-1_109_145" fill="white">
<path fill-rule="evenodd" clip-rule="evenodd" d="M39.4832 196.231C39.4832 148.545 53.8658 105.569 76.8775 74.6297C99.8893 43.6905 131.286 25.0408 165.529 25.0408C199.771 25.0408 231.168 43.6905 254.18 74.6297C277.192 105.569 291.575 148.545 291.575 196.231C291.575 221.15 283.327 246.621 271.565 271.446C260.82 294.122 247.324 315.902 234.887 335.972L234.861 336.014C233.692 337.901 232.532 339.772 231.385 341.628C224.106 353.403 220.072 365.454 216.619 375.771C216.084 377.368 215.563 378.924 215.047 380.43C211.056 392.064 207.455 400.225 200.654 405.011C199.658 405.713 197.818 406.438 194.972 407C192.218 407.545 188.947 407.857 185.431 408.018C180.499 408.244 175.516 408.164 171.091 408.092H171.09H171.088C169.105 408.06 167.233 408.03 165.529 408.03C163.824 408.03 161.953 408.06 159.97 408.092H159.968H159.966C155.541 408.164 150.559 408.244 145.627 408.018C142.111 407.857 138.84 407.545 136.085 407C133.239 406.438 131.4 405.713 130.403 405.011C123.603 400.225 120.001 392.064 116.011 380.43C115.495 378.924 114.974 377.369 114.439 375.772L114.439 375.771C110.986 365.454 106.951 353.403 99.6724 341.628C98.5168 339.758 97.3484 337.873 96.1705 335.972C83.7336 315.902 70.2377 294.122 59.493 271.446C47.7307 246.621 39.4832 221.15 39.4832 196.231ZM165.529 418.03C164.103 418.03 162.407 418.057 160.534 418.087C155.994 418.159 150.42 418.248 145.17 418.008C141.407 417.836 137.587 417.49 134.147 416.811C130.799 416.149 127.341 415.085 124.648 413.189C114.867 406.305 110.452 395.045 106.552 383.674C106.003 382.074 105.461 380.459 104.915 378.83L104.914 378.83C101.441 368.48 97.7904 357.602 91.1664 346.886C90.0086 345.013 88.8342 343.118 87.647 341.202L87.6405 341.192C75.2468 321.194 61.4554 298.941 50.4562 275.727C38.4015 250.286 29.4832 223.263 29.4832 196.231C29.4832 146.61 44.4361 101.491 68.8536 68.6617C93.2711 35.8326 127.397 15.0408 165.529 15.0408C203.661 15.0408 237.787 35.8326 262.204 68.6617C286.622 101.491 301.575 146.61 301.575 196.231C301.575 223.263 292.656 250.286 280.602 275.727C269.602 298.941 255.811 321.194 243.417 341.192L243.397 341.224C242.215 343.132 241.045 345.02 239.891 346.886C233.267 357.602 229.617 368.48 226.143 378.83L226.143 378.83C225.597 380.459 225.054 382.074 224.506 383.674C220.606 395.045 216.19 406.305 206.41 413.189C203.716 415.085 200.259 416.149 196.911 416.811C193.471 417.49 189.651 417.836 185.888 418.008C180.638 418.248 175.064 418.159 170.524 418.087C168.651 418.057 166.954 418.03 165.529 418.03Z"/>
</mask>
<path fill-rule="evenodd" clip-rule="evenodd" d="M39.4832 196.231C39.4832 148.545 53.8658 105.569 76.8775 74.6297C99.8893 43.6905 131.286 25.0408 165.529 25.0408C199.771 25.0408 231.168 43.6905 254.18 74.6297C277.192 105.569 291.575 148.545 291.575 196.231C291.575 221.15 283.327 246.621 271.565 271.446C260.82 294.122 247.324 315.902 234.887 335.972L234.861 336.014C233.692 337.901 232.532 339.772 231.385 341.628C224.106 353.403 220.072 365.454 216.619 375.771C216.084 377.368 215.563 378.924 215.047 380.43C211.056 392.064 207.455 400.225 200.654 405.011C199.658 405.713 197.818 406.438 194.972 407C192.218 407.545 188.947 407.857 185.431 408.018C180.499 408.244 175.516 408.164 171.091 408.092H171.09H171.088C169.105 408.06 167.233 408.03 165.529 408.03C163.824 408.03 161.953 408.06 159.97 408.092H159.968H159.966C155.541 408.164 150.559 408.244 145.627 408.018C142.111 407.857 138.84 407.545 136.085 407C133.239 406.438 131.4 405.713 130.403 405.011C123.603 400.225 120.001 392.064 116.011 380.43C115.495 378.924 114.974 377.369 114.439 375.772L114.439 375.771C110.986 365.454 106.951 353.403 99.6724 341.628C98.5168 339.758 97.3484 337.873 96.1705 335.972C83.7336 315.902 70.2377 294.122 59.493 271.446C47.7307 246.621 39.4832 221.15 39.4832 196.231ZM165.529 418.03C164.103 418.03 162.407 418.057 160.534 418.087C155.994 418.159 150.42 418.248 145.17 418.008C141.407 417.836 137.587 417.49 134.147 416.811C130.799 416.149 127.341 415.085 124.648 413.189C114.867 406.305 110.452 395.045 106.552 383.674C106.003 382.074 105.461 380.459 104.915 378.83L104.914 378.83C101.441 368.48 97.7904 357.602 91.1664 346.886C90.0086 345.013 88.8342 343.118 87.647 341.202L87.6405 341.192C75.2468 321.194 61.4554 298.941 50.4562 275.727C38.4015 250.286 29.4832 223.263 29.4832 196.231C29.4832 146.61 44.4361 101.491 68.8536 68.6617C93.2711 35.8326 127.397 15.0408 165.529 15.0408C203.661 15.0408 237.787 35.8326 262.204 68.6617C286.622 101.491 301.575 146.61 301.575 196.231C301.575 223.263 292.656 250.286 280.602 275.727C269.602 298.941 255.811 321.194 243.417 341.192L243.397 341.224C242.215 343.132 241.045 345.02 239.891 346.886C233.267 357.602 229.617 368.48 226.143 378.83L226.143 378.83C225.597 380.459 225.054 382.074 224.506 383.674C220.606 395.045 216.19 406.305 206.41 413.189C203.716 415.085 200.259 416.149 196.911 416.811C193.471 417.49 189.651 417.836 185.888 418.008C180.638 418.248 175.064 418.159 170.524 418.087C168.651 418.057 166.954 418.03 165.529 418.03Z" fill="#FEC601"/>
<path d="M76.8775 74.6297L64.8417 65.6777L76.8775 74.6297ZM254.18 74.6297L266.216 65.6777L254.18 74.6297ZM271.565 271.446L258.009 265.023L271.565 271.446ZM234.887 335.972L222.137 328.071L222.135 328.074L234.887 335.972ZM234.861 336.014L247.612 343.915L247.614 343.912L234.861 336.014ZM231.385 341.628L218.626 333.741H218.626L231.385 341.628ZM216.619 375.771L202.394 371.01L202.394 371.01L216.619 375.771ZM215.047 380.43L229.235 385.296L229.235 385.296L215.047 380.43ZM200.654 405.011L192.021 392.745L192.021 392.745L200.654 405.011ZM194.972 407L197.88 421.716L197.88 421.716L194.972 407ZM185.431 408.018L186.116 423.003H186.116L185.431 408.018ZM171.091 408.092L171.333 393.094L171.212 393.092H171.091V408.092ZM171.088 408.092L170.846 423.09L170.967 423.092H171.088V408.092ZM159.97 408.092V423.092H160.091L160.212 423.09L159.97 408.092ZM159.966 408.092V393.092H159.845L159.724 393.094L159.966 408.092ZM145.627 408.018L144.941 423.003H144.941L145.627 408.018ZM136.085 407L133.178 421.716L133.178 421.716L136.085 407ZM130.403 405.011L139.037 392.745L139.037 392.745L130.403 405.011ZM116.011 380.43L101.822 385.296L116.011 380.43ZM114.439 375.772L128.664 371.01L128.644 370.953L128.625 370.896L114.439 375.772ZM114.439 375.771L100.215 380.533L100.234 380.59L100.254 380.647L114.439 375.771ZM99.6724 341.628L112.431 333.741L112.431 333.741L99.6724 341.628ZM96.1705 335.972L108.921 328.071L108.921 328.071L96.1705 335.972ZM59.493 271.446L73.0484 265.023L59.493 271.446ZM160.534 418.087L160.773 433.085H160.773L160.534 418.087ZM145.17 418.008L145.856 403.023H145.856L145.17 418.008ZM134.147 416.811L131.239 431.526H131.239L134.147 416.811ZM124.648 413.189L116.015 425.455L116.015 425.455L124.648 413.189ZM106.552 383.674L92.3633 388.541H92.3634L106.552 383.674ZM104.915 378.83L119.135 374.058L119.052 373.809L118.96 373.563L104.915 378.83ZM104.914 378.83L90.6939 383.602L90.7774 383.851L90.8695 384.097L104.914 378.83ZM91.1664 346.886L103.925 338.999L91.1664 346.886ZM87.647 341.202L74.8894 349.092L74.8933 349.098L74.8971 349.104L87.647 341.202ZM87.6405 341.192L100.398 333.302L100.394 333.296L100.39 333.29L87.6405 341.192ZM50.4562 275.727L64.0115 269.305L50.4562 275.727ZM68.8536 68.6617L56.8177 59.7097L68.8536 68.6617ZM262.204 68.6617L274.24 59.7097L262.204 68.6617ZM280.602 275.727L267.046 269.305L280.602 275.727ZM243.417 341.192L230.667 333.29L230.667 333.291L243.417 341.192ZM243.397 341.224L256.147 349.126L256.148 349.125L243.397 341.224ZM239.891 346.886L227.132 338.999L227.132 338.999L239.891 346.886ZM226.143 378.83L240.188 384.097L240.28 383.851L240.364 383.602L226.143 378.83ZM226.143 378.83L212.098 373.563L212.006 373.809L211.923 374.058L226.143 378.83ZM224.506 383.674L238.694 388.541H238.694L224.506 383.674ZM206.41 413.189L215.043 425.455L215.043 425.455L206.41 413.189ZM196.911 416.811L199.818 431.526H199.818L196.911 416.811ZM185.888 418.008L185.202 403.023H185.202L185.888 418.008ZM170.524 418.087L170.284 433.085H170.285L170.524 418.087ZM64.8417 65.6777C39.7215 99.4516 24.4832 145.642 24.4832 196.231H54.4832C54.4832 151.448 68.0101 111.686 88.9134 83.5816L64.8417 65.6777ZM165.529 10.0408C125.456 10.0408 89.9647 31.8999 64.8417 65.6777L88.9134 83.5816C109.814 55.4811 137.117 40.0408 165.529 40.0408V10.0408ZM165.529 40.0408C193.941 40.0408 221.244 55.4811 242.144 83.5816L266.216 65.6777C241.093 31.8999 205.602 10.0408 165.529 10.0408V40.0408ZM242.144 83.5816C263.048 111.686 276.575 151.448 276.575 196.231H306.575C306.575 145.642 291.336 99.4516 266.216 65.6777L242.144 83.5816ZM276.575 196.231C276.575 217.981 269.333 241.123 258.009 265.023L285.12 277.868C297.321 252.119 306.575 224.32 306.575 196.231H276.575ZM258.009 265.023C247.685 286.811 234.646 307.883 222.137 328.071L247.638 343.873C260.002 323.92 273.955 301.432 285.12 277.868L258.009 265.023ZM222.135 328.074L222.109 328.117L247.614 343.912L247.64 343.87L222.135 328.074ZM222.111 328.113C220.942 329.999 219.778 331.877 218.626 333.741L244.144 349.515C245.286 347.667 246.442 345.803 247.612 343.915L222.111 328.113ZM218.626 333.741C210.315 347.187 205.809 360.808 202.394 371.01L230.843 380.533C234.335 370.1 237.898 359.62 244.144 349.515L218.626 333.741ZM202.394 371.01C201.856 372.617 201.353 374.119 200.858 375.564L229.235 385.296C229.773 383.728 230.312 382.12 230.843 380.533L202.394 371.01ZM200.858 375.564C196.722 387.624 194.342 391.111 192.021 392.745L209.288 417.278C220.568 409.338 225.391 396.504 229.235 385.296L200.858 375.564ZM192.021 392.745C192.284 392.56 192.512 392.418 192.693 392.313C192.874 392.207 193.023 392.13 193.132 392.076C193.342 391.973 193.448 391.937 193.414 391.949C193.385 391.959 193.262 392.002 193.028 392.065C192.797 392.127 192.479 392.203 192.065 392.285L197.88 421.716C201.468 421.007 205.74 419.774 209.288 417.278L192.021 392.745ZM192.065 392.285C190.339 392.626 187.893 392.89 184.745 393.034L186.116 423.003C190.002 422.825 194.097 422.463 197.88 421.716L192.065 392.285ZM184.745 393.034C180.35 393.235 175.826 393.167 171.333 393.094L170.849 423.09C175.207 423.161 180.647 423.253 186.116 423.003L184.745 393.034ZM171.091 393.092H171.09V423.092H171.091V393.092ZM171.09 393.092H171.088V423.092H171.09V393.092ZM171.33 393.094C169.377 393.063 167.378 393.03 165.529 393.03V423.03C167.089 423.03 168.832 423.058 170.846 423.09L171.33 393.094ZM160.212 423.09C162.225 423.058 163.969 423.03 165.529 423.03V393.03C163.68 393.03 161.681 393.063 159.728 393.094L160.212 423.09ZM159.968 423.092H159.97V393.092H159.968V423.092ZM159.966 423.092H159.968V393.092H159.966V423.092ZM144.941 423.003C150.411 423.253 155.851 423.161 160.208 423.09L159.724 393.094C155.232 393.167 150.707 393.235 146.313 393.034L144.941 423.003ZM133.178 421.716C136.961 422.463 141.056 422.825 144.941 423.003L146.313 393.034C143.165 392.89 140.719 392.626 138.993 392.285L133.178 421.716ZM121.77 417.278C125.317 419.774 129.59 421.007 133.178 421.716L138.993 392.285C138.579 392.203 138.261 392.127 138.029 392.065C137.796 392.002 137.672 391.959 137.643 391.949C137.61 391.937 137.715 391.973 137.926 392.076C138.035 392.13 138.184 392.207 138.365 392.313C138.546 392.418 138.774 392.56 139.037 392.745L121.77 417.278ZM101.822 385.296C105.666 396.504 110.489 409.338 121.77 417.278L139.037 392.745C136.716 391.111 134.336 387.624 130.2 375.564L101.822 385.296ZM100.215 380.533C100.746 382.12 101.285 383.729 101.822 385.296L130.2 375.564C129.704 374.119 129.201 372.617 128.664 371.01L100.215 380.533ZM100.254 380.647L100.254 380.648L128.625 370.896L128.624 370.895L100.254 380.647ZM86.9134 349.515C93.1596 359.62 96.7227 370.1 100.215 380.533L128.663 371.009C125.248 360.808 120.743 347.187 112.431 333.741L86.9134 349.515ZM83.42 343.873C84.5987 345.775 85.7628 347.654 86.9134 349.515L112.431 333.741C111.271 331.863 110.098 329.971 108.921 328.071L83.42 343.873ZM45.9377 277.868C57.1029 301.432 71.0559 323.92 83.42 343.873L108.921 328.071C96.4113 307.883 83.3724 286.811 73.0484 265.023L45.9377 277.868ZM24.4832 196.231C24.4832 224.32 33.7371 252.119 45.9377 277.868L73.0484 265.023C61.7243 241.123 54.4832 217.981 54.4832 196.231H24.4832ZM165.529 403.03C163.958 403.03 162.13 403.06 160.295 403.089L160.773 433.085C162.684 433.055 164.248 433.03 165.529 433.03V403.03ZM160.295 403.089C155.679 403.162 150.567 403.239 145.856 403.023L144.484 432.992C150.273 433.257 156.309 433.156 160.773 433.085L160.295 403.089ZM145.856 403.023C142.463 402.868 139.467 402.572 137.055 402.095L131.239 431.526C135.707 432.409 140.351 432.803 144.484 432.992L145.856 403.023ZM137.055 402.095C135.887 401.865 134.961 401.613 134.254 401.357C133.535 401.097 133.268 400.914 133.281 400.922L116.015 425.455C121.25 429.14 127.132 430.715 131.239 431.526L137.055 402.095ZM133.281 400.922C127.962 397.179 124.768 390.549 120.741 378.808L92.3634 388.541C96.1357 399.54 101.773 415.432 116.015 425.455L133.281 400.922ZM120.741 378.808C120.211 377.263 119.685 375.695 119.135 374.058L90.694 383.602C91.2378 385.223 91.7958 386.886 92.3633 388.541L120.741 378.808ZM118.96 373.563L118.959 373.563L90.8695 384.097L90.8696 384.097L118.96 373.563ZM119.135 374.057C115.711 363.855 111.585 351.39 103.925 338.999L78.4074 354.773C83.9954 363.813 87.1713 373.106 90.6939 383.602L119.135 374.057ZM103.925 338.999C102.762 337.117 101.583 335.215 100.397 333.3L74.8971 349.104C76.085 351.021 77.2548 352.909 78.4074 354.773L103.925 338.999ZM100.405 333.313L100.398 333.302L74.883 349.081L74.8894 349.092L100.405 333.313ZM100.39 333.29C87.9272 313.18 74.5908 291.632 64.0115 269.305L36.9008 282.15C48.32 306.25 62.5664 329.208 74.8906 349.094L100.39 333.29ZM64.0115 269.305C52.3954 244.789 44.4832 220.094 44.4832 196.231H14.4832C14.4832 226.432 24.4076 255.784 36.9008 282.15L64.0115 269.305ZM44.4832 196.231C44.4832 149.512 58.5808 107.608 80.8895 77.6137L56.8177 59.7097C30.2915 95.3741 14.4832 143.707 14.4832 196.231H44.4832ZM80.8895 77.6137C103.201 47.6161 133.234 30.0408 165.529 30.0408V0.0407715C121.559 0.0407715 83.3413 24.049 56.8177 59.7097L80.8895 77.6137ZM274.24 59.7097C247.716 24.049 209.498 0.0407715 165.529 0.0407715V30.0408C197.823 30.0408 227.857 47.6161 250.168 77.6137L274.24 59.7097ZM316.575 196.231C316.575 143.707 300.766 95.3741 274.24 59.7097L250.168 77.6137C272.477 107.608 286.575 149.512 286.575 196.231H316.575ZM294.157 282.15C306.65 255.784 316.575 226.432 316.575 196.231H286.575C286.575 220.094 278.662 244.789 267.046 269.305L294.157 282.15ZM256.167 349.094C268.491 329.208 282.738 306.25 294.157 282.15L267.046 269.305C256.467 291.632 243.131 313.18 230.667 333.29L256.167 349.094ZM256.148 349.125L256.168 349.093L230.667 333.291L230.647 333.323L256.148 349.125ZM252.65 354.773C253.799 352.916 254.964 351.035 256.147 349.126L230.647 333.322C229.466 335.229 228.291 337.124 227.132 338.999L252.65 354.773ZM240.364 383.602C243.886 373.106 247.062 363.813 252.65 354.773L227.132 338.999C219.472 351.39 215.347 363.855 211.923 374.057L240.364 383.602ZM240.188 384.097L240.188 384.097L212.098 373.563L212.098 373.563L240.188 384.097ZM238.694 388.541C239.262 386.886 239.82 385.223 240.364 383.602L211.923 374.058C211.373 375.695 210.847 377.263 210.317 378.808L238.694 388.541ZM215.043 425.455C229.285 415.432 234.922 399.54 238.694 388.541L210.317 378.808C206.29 390.549 203.096 397.179 197.777 400.922L215.043 425.455ZM199.818 431.526C203.926 430.715 209.807 429.14 215.043 425.455L197.777 400.922C197.789 400.914 197.523 401.097 196.804 401.357C196.097 401.613 195.17 401.865 194.003 402.095L199.818 431.526ZM186.573 432.992C190.706 432.803 195.351 432.409 199.818 431.526L194.003 402.095C191.591 402.572 188.595 402.868 185.202 403.023L186.573 432.992ZM170.285 433.085C174.749 433.156 180.785 433.257 186.574 432.992L185.202 403.023C180.491 403.239 175.379 403.162 170.763 403.089L170.285 433.085ZM165.529 433.03C166.81 433.03 168.374 433.055 170.284 433.085L170.763 403.089C168.928 403.06 167.099 403.03 165.529 403.03V433.03Z" fill="#19354F" mask="url(#path-4-inside-1_109_145)"/>
</svg>
